{"title":"Below Ground - Demon Holocaust (2012)","uid":8096916,"size":1537602839,"categoryP":"video","categoryS":"movies","magnet":"?xt=urn:btih:aa4c8c174f6f1dd05ecb42677c33b22e0bd18e51&amp;dn=Below+Ground+-+Demon+Holocaust+%282012%29&amp;tr=udp%3A%2F%2Ftracker.openbittorrent.com%3A80&amp;tr=udp%3A%2F%2Fopen.demonii.com%3A1337&amp;tr=udp%3A%2F%2Ftracker.coppersurfer.tk%3A6969&amp;tr=udp%3A%2F%2Fexodus.desync.com%3A6969","seeders":1,"leechers":0,"uploader":"RadioResearch","files":3,"time":1359861723,"description":"*******************************************************************************\n                     Below Ground - Demon Holocaust (2012)\n*******************************************************************************\n\n-------------------------------------------------------------------------------\n                              General Information\n-------------------------------------------------------------------------------\nType.................: Movie\n\n\n\nVideo Format.........: AVI\nVideo Bitrate........: 2695\nResolution...........: 720 x 404\nColor................: 8 bit\nFPS..................: 29.97\nSource...............: DVD 16x9\nOriginal Format......: NTSC\nGenre................: Horror\nIMDb Rating..........: None yet\nMovie Information....: http://www.imdb.com/title/tt2183716\n\n-------------------------------------------------------------------------------\n                               Post Information\n-------------------------------------------------------------------------------\nPosted by............: RadioResearch\nPosted on............: 2/2/2013\n\n-------------------------------------------------------------------------------\n                                 Release Notes\n-------------------------------------------------------------------------------\nA horror filmmaker, Dave Dommin, documents a Demon Invasion in his hometown, \noffering shelter to four people: a stripper and her abusive boyfriend, a \nreligious man and his pregnant girlfriend.  Together they struggle to survive \nthe demonic infestation, all while fighting amongst themselves, insane with the \ndesperate will to survive.\n\nEnjoy,\n\nRadioResearch\n\nGeneral\nComplete name                            : G:AVIBelow Ground - Demon Holocaust \n(2012)4_19_2012 9_30 A_Title2.avi\nFormat                                   : AVI\nFormat/Info                              : Audio Video Interleave\nFormat profile                           : OpenDML\nFile size                                : 1.43 GiB\nDuration                                 : 1h 16mn\nOverall bit rate                         : 2 695 Kbps\nMovie name                               : 4_19_2012_9_30_A\nWriting application                      : MEncoder 5.0\nWriting library                          : [= DigiArty videodll! =]\n\nVideo\nID                                       : 0\nFormat                                   : MPEG-4 Visual\nFormat profile                           : Simple@L1\nFormat settings, BVOP                    : No\nFormat settings, QPel                    : No\nFormat settings, GMC                     : No warppoints\nFormat settings, Matrix                  : Default (H.263)\nCodec ID                                 : DX50\nCodec ID/Hint                            : DivX 5\nDuration                                 : 1h 16mn\nBit rate                                 : 2 497 Kbps\nWidth                                    : 720 pixels\nHeight                                   : 404 pixels\nDisplay aspect ratio                     : 16:9\nFrame rate                               : 29.970 fps\nColor space                              : YUV\nChroma subsampling                       : 4:2:0\nBit depth                                : 8 bits\nScan type                                : Progressive\nCompression mode                         : Lossy\nBits/(Pixel*Frame)                       : 0.286\nStream size                              : 1.33 GiB (93%)\nWriting library                          : Lavc54.71.100\n\nAudio\nID                                       : 1\nFormat                                   : AC-3\nFormat/Info                              : Audio Coding 3\nMode extension                           : CM (complete main)\nFormat settings, Endianness              : Big\nCodec ID                                 : 2000\nDuration                                 : 1h 16mn\nBit rate mode                            : Constant\nBit rate                                 : 192 Kbps\nChannel(s)                               : 2 channels\nChannel positions                        : Front: L R\nSampling rate                            : 48.0 KHz\nBit depth                                : 16 bits\nCompression mode                         : Lossy\nStream size                              : 104 MiB (7%)\nAlignment                                : Split accross interleaves\nInterleave, duration                     : 500 ms (14.98 video frames)\nInterleave, preload duration             : 500 ms\n\n\n\n\n-------------------------------------------------------------------------------\nGenerated with Cool NFO Creator - http://fly.to/coolbeans\n-------------------------------------------------------------------------------\n","torrent":{"xt":"urn:btih:aa4c8c174f6f1dd05ecb42677c33b22e0bd18e51","amp;dn":"Below+Ground+-+Demon+Holocaust+%282012%29","amp;tr":["udp%3A%2F%2Ftracker.openbittorrent.com%3A80","udp%3A%2F%2Fopen.demonii.com%3A1337","udp%3A%2F%2Ftracker.coppersurfer.tk%3A6969","udp%3A%2F%2Fexodus.desync.com%3A6969"],"infoHash":"aa4c8c174f6f1dd05ecb42677c33b22e0bd18e51","infoHashBuffer":{"type":"Buffer","data":[170,76,140,23,79,111,29,208,94,203,66,103,124,51,178,46,11,209,142,81]},"announce":[],"urlList":[]}}